<?xml version="1.0" ?><svg data-name="Layer 1" id="Layer_1" viewBox="0 0 512 512" xmlns="http://www.w3.org/2000/svg"><path d="M49.45,209.52a5.1,5.1,0,0,0,5.1-5.1v-65L105,101.71l50.41,37.73v65a5.1,5.1,0,0,0,10.2,0V137.67a6.68,6.68,0,0,0-2.66-5.33L109,92a6.72,6.72,0,0,0-8,0L47,132.34a6.7,6.7,0,0,0-2.68,5.33v66.75A5.1,5.1,0,0,0,49.45,209.52Z"/><path d="M306.41,204.42a5.1,5.1,0,0,0,10.2,0V137.67a6.68,6.68,0,0,0-2.66-5.33L260,92a6.71,6.71,0,0,0-8,0l-53.95,40.39a6.67,6.67,0,0,0-2.68,5.33v66.75a5.1,5.1,0,0,0,10.2,0v-65L256,101.71l50.41,37.73Z"/><path d="M351.51,209.52a5.1,5.1,0,0,0,5.1-5.1v-65L407,101.71l50.41,37.73v65a5.1,5.1,0,1,0,10.2,0V137.67a6.71,6.71,0,0,0-2.66-5.33l-54-40.4a6.66,6.66,0,0,0-8,0l-53.95,40.39a6.69,6.69,0,0,0-2.67,5.33v66.75A5.1,5.1,0,0,0,351.51,209.52Z"/><path d="M245.75,319.26l-33.92-23.42v-39a5.1,5.1,0,0,0-5.1-5.1H174.39a5.1,5.1,0,0,0-5.1,5.1v9.63L139,245.56a5.09,5.09,0,0,0-5.8,0L26.44,319.26a5.09,5.09,0,0,0,2.89,9.29H55.91v87.73a5.1,5.1,0,0,0,10.2,0V323.45a5.1,5.1,0,0,0-5.1-5.1H45.7L136.09,256l35.4,24.44a5.1,5.1,0,0,0,8-4.2V262h22.14v36.57a5.09,5.09,0,0,0,2.2,4.19l22.66,15.64H211.17a5.1,5.1,0,0,0-5.1,5.1v92.83a5.1,5.1,0,0,0,10.2,0V328.55h26.58a5.1,5.1,0,0,0,2.9-9.29Z"/><path d="M136.38,333.24h-.57a33.55,33.55,0,0,0-33.52,33.51v49.53a5.1,5.1,0,0,0,10.2,0V366.75a23.34,23.34,0,0,1,23.32-23.31h.57a23.33,23.33,0,0,1,23.31,23.31v49.53a5.1,5.1,0,0,0,10.2,0V366.75A33.54,33.54,0,0,0,136.38,333.24Z"/><path d="M485.56,319.26l-33.92-23.42v-39a5.1,5.1,0,0,0-5.1-5.1H414.2a5.11,5.11,0,0,0-5.1,5.1v9.63l-30.3-20.92a5.07,5.07,0,0,0-5.79,0l-106.76,73.7a5.1,5.1,0,0,0,2.9,9.29h26.58v87.73a5.1,5.1,0,0,0,10.2,0V323.45a5.1,5.1,0,0,0-5.1-5.1H285.51L375.9,256l35.41,24.44a5.09,5.09,0,0,0,8-4.2V262h22.14v36.57a5.09,5.09,0,0,0,2.2,4.19l22.66,15.64H451a5.1,5.1,0,0,0-5.1,5.1v92.83a5.1,5.1,0,0,0,10.2,0V328.55h26.59a5.09,5.09,0,0,0,2.89-9.29Z"/><path d="M376.19,333.24h-.57a33.54,33.54,0,0,0-33.51,33.51v49.53a5.1,5.1,0,0,0,10.2,0V366.75a23.33,23.33,0,0,1,23.31-23.31h.57a23.33,23.33,0,0,1,23.31,23.31v49.53a5.1,5.1,0,1,0,10.2,0V366.75A33.54,33.54,0,0,0,376.19,333.24Z"/></svg>