<?xml version="1.0"?>
<svg style="enable-background:new 0 0 512 512;" version="1.1" viewBox="0 0 512 512" xml:space="preserve" xmlns="http://www.w3.org/2000/svg" xmlns:xlink="http://www.w3.org/1999/xlink">
	<g id="Working_Hours">
		<g id="XMLID_1212_">
			<g id="XMLID_3915_">
				<g id="XMLID_3813_">
					<g id="XMLID_3909_">
						<path d="M231.03,211c0,0.02,0,0.03,0,0.05c0,11.03-8.95,19.98-19.98,19.98       s-19.98-8.95-19.98-19.98s8.95-19.98,19.98-19.98C222.06,191.07,231,199.99,231.03,211z" id="XMLID_5930_" style="fill:#C3E3F7;" />
					</g>
					<g id="XMLID_3815_">
						<polygon id="XMLID_5928_" points="500.72,462.19 500.72,500.72 241.02,500.72 241.02,462.19 271,462.19        477,462.19      " style="fill:#C3E3F7;" />
					</g>
					<g id="XMLID_3814_">
						<path d="M333.91,333.12v-6.11c0-19.91,16.14-36.05,36.05-36.05h7.81       c5.34,0,10.41,1.16,14.97,3.25c12.44,5.68,21.08,18.23,21.08,32.8v6.14h0.13c12.34,5.21,23.54,12.78,32.86,22.09       c17.01,17.03,28.18,40.04,29.94,65.58L474,421H274l-2.75-0.18c0.47-7,1.65-13.8,3.46-20.34       C283.12,370.03,305.19,345.22,333.91,333.12z" id="XMLID_5926_" style="fill:#C3E3F7;" />
					</g>
				</g>
				<g id="XMLID_1138_">
					<g id="XMLID_3812_">
						<path d="M500.72,510.72h-259.7c-5.522,0-10-4.478-10-10v-38.529       c0-5.522,4.478-10,10-10h259.7c5.522,0,10,4.478,10,10v38.529C510.72,506.242,506.242,510.72,500.72,510.72z M251.02,490.72       h239.7v-18.529h-239.7V490.72z" id="XMLID_4199_" style="fill:#0096FF;" />
					</g>
					<g id="XMLID_3811_">
						<path d="M477,472c-5.522,0-10-4.478-10-10v-34.06c0-2.191-0.075-4.344-0.224-6.398       c-1.536-22.29-11.139-43.314-27.042-59.234c-8.407-8.4-18.671-15.3-29.674-19.944c-5.088-2.148-7.471-8.015-5.323-13.103       c2.149-5.088,8.017-7.469,13.103-5.323c13.354,5.639,25.816,14.017,36.037,24.229c19.32,19.341,30.984,44.897,32.85,71.967       c0.181,2.499,0.273,5.138,0.273,7.808V462C487,467.523,482.522,472,477,472z" id="XMLID_4198_" style="fill:#0096FF;" />
					</g>
					<g id="XMLID_3810_">
						<path d="M271,472c-5.522,0-10-4.478-10-10v-34.06c0-2.67,0.093-5.309,0.276-7.842       c0.502-7.487,1.78-15.002,3.796-22.285c9.097-32.938,33.329-60.54,64.834-73.857c1.258-0.552,2.627-0.846,4.023-0.846       c5.522,0,10,4.478,10,10c0,4.199-2.588,7.794-6.256,9.275c-25.913,10.961-45.842,33.664-53.325,60.757       c-1.656,5.985-2.706,12.156-3.121,18.348c-0.152,2.106-0.228,4.259-0.228,6.45V462C281,467.523,276.522,472,271,472z" id="XMLID_4197_" style="fill:#0096FF;" />
					</g>
					<g id="XMLID_3809_">
						<path d="M413.82,386.58c-5.522,0-10-4.478-10-10v-49.57       c0-10.174-5.979-19.478-15.233-23.703c-3.402-1.559-7.038-2.347-10.817-2.347h-7.81c-14.364,0-26.05,11.686-26.05,26.05v49.57       c0,5.522-4.478,10-10,10s-10-4.478-10-10v-49.57c0-25.392,20.658-46.05,46.05-46.05h7.81c6.676,0,13.114,1.399,19.137,4.159       c16.345,7.463,26.914,23.908,26.914,41.891v49.57C423.82,382.103,419.343,386.58,413.82,386.58z" id="XMLID_4196_" style="fill:#0096FF;" />
					</g>
					<g id="XMLID_3808_">
						<path d="M374,351c-5.522,0-10-4.478-10-10v-50c0-5.522,4.478-10,10-10s10,4.478,10,10       v50C384,346.523,379.522,351,374,351z" id="XMLID_4195_" style="fill:#0096FF;" />
					</g>
					<g id="XMLID_3807_">
						<path d="M474,431H274c-5.522,0-10-4.478-10-10s4.478-10,10-10h200       c5.522,0,10,4.478,10,10S479.522,431,474,431z" id="XMLID_4194_" style="fill:#0096FF;" />
					</g>
					<g id="XMLID_3806_">
						<path d="M211.05,420.821c-115.667,0-209.77-94.103-209.77-209.771       C1.28,95.383,95.383,1.28,211.05,1.28c115.668,0,209.771,94.103,209.771,209.77c0,30.464-6.389,59.846-18.99,87.328       c-2.302,5.02-8.237,7.224-13.258,4.922s-7.224-8.237-4.922-13.258c11.394-24.849,17.17-51.426,17.17-78.992       c0-104.64-85.131-189.77-189.771-189.77S21.28,106.41,21.28,211.05s85.13,189.771,189.77,189.771       c20.715,0,41.054-3.307,60.454-9.829c5.237-1.763,10.906,1.058,12.665,6.292c1.76,5.234-1.057,10.905-6.292,12.665       C256.419,417.162,233.936,420.821,211.05,420.821z" id="XMLID_4193_" style="fill:#0096FF;" />
					</g>
					<g id="XMLID_3805_">
						<path d="M211,81c-5.522,0-10-4.477-10-10V51c0-5.523,4.478-10,10-10s10,4.477,10,10v20       C221,76.523,216.522,81,211,81z" id="XMLID_4192_" style="fill:#0096FF;" />
					</g>
					<g id="XMLID_1211_">
						<path d="M211,381c-5.522,0-10-4.478-10-10v-20c0-5.522,4.478-10,10-10s10,4.478,10,10       v20C221,376.523,216.522,381,211,381z" id="XMLID_4191_" style="fill:#0096FF;" />
					</g>
					<g id="XMLID_1210_">
						<path d="M309.93,122.17c-2.561,0-5.121-0.977-7.073-2.931       c-3.904-3.907-3.902-10.238,0.005-14.143l14.13-14.12c3.906-3.904,10.239-3.902,14.142,0.005       c3.904,3.907,3.902,10.238-0.005,14.143l-14.13,14.12C315.046,121.195,312.487,122.17,309.93,122.17z" id="XMLID_4189_" style="fill:#0096FF;" />
					</g>
					<g id="XMLID_1209_">
						<path d="M98.05,334.06c-2.559,0-5.116-0.976-7.068-2.927       c-3.907-3.903-3.909-10.235-0.005-14.142l14.12-14.13c3.903-3.906,10.236-3.908,14.142-0.005       c3.907,3.903,3.909,10.235,0.005,14.142l-14.12,14.13C103.171,333.082,100.61,334.06,98.05,334.06z" id="XMLID_4188_" style="fill:#0096FF;" />
					</g>
					<g id="XMLID_1206_">
						<path d="M371,221h-20c-5.522,0-10-4.477-10-10s4.478-10,10-10h20       c5.522,0,10,4.477,10,10S376.522,221,371,221z" id="XMLID_4187_" style="fill:#0096FF;" />
					</g>
					<g id="XMLID_1205_">
						<path d="M71,221H51c-5.522,0-10-4.477-10-10s4.478-10,10-10h20c5.522,0,10,4.477,10,10       S76.522,221,71,221z" id="XMLID_4186_" style="fill:#0096FF;" />
					</g>
					<g id="XMLID_1186_">
						<path d="M112.17,122.17c-2.56,0-5.118-0.976-7.071-2.929l-14.12-14.12       c-3.905-3.905-3.905-10.237,0-14.143c3.906-3.905,10.236-3.905,14.143,0l14.12,14.12c3.905,3.905,3.905,10.237,0,14.143       C117.288,121.194,114.729,122.17,112.17,122.17z" id="XMLID_4185_" style="fill:#0096FF;" />
					</g>
					<g id="XMLID_1185_">
						<path d="M211.05,241.03c-16.53,0-29.979-13.449-29.979-29.98       s13.449-29.98,29.979-29.98c16.486,0,29.936,13.414,29.98,29.903c0,0.009,0,0.068,0,0.077       C241.03,227.581,227.581,241.03,211.05,241.03z M211.05,201.07c-5.503,0-9.979,4.477-9.979,9.98s4.477,9.98,9.979,9.98       s9.98-4.477,9.98-9.98V211C221.016,205.537,216.538,201.07,211.05,201.07z" id="XMLID_4182_" style="fill:#0096FF;" />
					</g>
					<g id="XMLID_1180_">
						<path d="M211,201c-5.522,0-10-4.477-10-10v-40c0-5.523,4.478-10,10-10s10,4.477,10,10       v40C221,196.523,216.522,201,211,201z" id="XMLID_4181_" style="fill:#0096FF;" />
					</g>
					<g id="XMLID_1139_">
						<path d="M291,221h-59.97c-5.522,0-10.016-4.477-10.016-10s4.463-10,9.985-10h60       c5.522,0,10,4.477,10,10S296.522,221,291,221z" id="XMLID_4180_" style="fill:#0096FF;" />
					</g>
				</g>
			</g>
		</g>
	</g>
	<g id="Layer_1" />
</svg>
